<mxfile host="app.diagrams.net" agent="Mozilla/5.0 (Windows NT 10.0; Win64; x64) AppleWebKit/537.36 (KHTML, like Gecko) Chrome/130.0.0.0 Safari/537.36" border="50" scale="3" compressed="false" locked="false" version="26.2.15">
  <diagram name="Blank" id="YmL12bMKpDGza6XwsDPr">
    <mxGraphModel dx="3826" dy="2743" grid="0" gridSize="10" guides="1" tooltips="1" connect="1" arrows="1" fold="1" page="0" pageScale="1" pageWidth="827" pageHeight="1169" background="none" math="1" shadow="0">
      <root>
        <mxCell id="X5NqExCQtvZxIxQ7pmgY-0" />
        <mxCell id="1" parent="X5NqExCQtvZxIxQ7pmgY-0" />
        <mxCell id="a-mcO75McgQYjX_CqzFJ-227" value="Mindmap" style="swimlane;html=1;startSize=20;horizontal=1;containerType=tree;labelBackgroundColor=none;strokeColor=#D4E1F5;strokeWidth=1;fillColor=none;fontFamily=Comic Sans MS;fontSize=9;swimlaneLine=0;dashed=1;collapsible=0;" vertex="1" parent="1">
          <mxGeometry x="-2240" y="-1628" width="3402" height="1864" as="geometry" />
        </mxCell>
        <mxCell id="a-mcO75McgQYjX_CqzFJ-366" value="&lt;font style=&quot;color: light-dark(rgb(0, 0, 0), rgb(255, 0, 8));&quot; face=&quot;Comic Sans MS&quot;&gt;&lt;span style=&quot;font-size: 36px;&quot;&gt;DSA ROADMAP&lt;/span&gt;&lt;/font&gt;" style="ellipse;whiteSpace=wrap;html=1;align=center;container=1;recursiveResize=0;treeFolding=1;strokeWidth=2;" vertex="1" parent="a-mcO75McgQYjX_CqzFJ-227">
          <mxGeometry x="96" y="842.75" width="337" height="178.5" as="geometry" />
        </mxCell>
        <mxCell id="a-mcO75McgQYjX_CqzFJ-339" value="" style="endArrow=classic;html=1;curved=1;sourcePerimeterSpacing=10;strokeColor=#999900;targetPerimeterSpacing=7;rounded=0;fontSize=12;startSize=8;endSize=8;" edge="1" parent="1" target="a-mcO75McgQYjX_CqzFJ-338">
          <mxGeometry width="50" height="50" relative="1" as="geometry">
            <mxPoint x="-1049.3730494842548" y="-1244.5854019572494" as="sourcePoint" />
            <mxPoint x="-1917" y="-1141" as="targetPoint" />
            <Array as="points">
              <mxPoint x="-1904" y="-1640" />
            </Array>
          </mxGeometry>
        </mxCell>
        <mxCell id="a-mcO75McgQYjX_CqzFJ-440" value="&lt;font style=&quot;font-size: 30px;&quot;&gt;Basic&lt;/font&gt;" style="endArrow=classic;html=1;rounded=0;exitX=0.5;exitY=0;exitDx=0;exitDy=0;verticalAlign=middle;labelPosition=center;verticalLabelPosition=middle;align=center;horizontal=1;" edge="1" parent="1" source="a-mcO75McgQYjX_CqzFJ-366">
          <mxGeometry width="50" height="50" relative="1" as="geometry">
            <mxPoint x="-1986" y="-788" as="sourcePoint" />
            <mxPoint x="-1714" y="-1048" as="targetPoint" />
          </mxGeometry>
        </mxCell>
      </root>
    </mxGraphModel>
  </diagram>
</mxfile>
